<?xml version="1.0" encoding="UTF-8" standalone="no"?>
<!DOCTYPE svg PUBLIC "-//W3C//DTD SVG 1.1//EN"
 "http://www.w3.org/Graphics/SVG/1.1/DTD/svg11.dtd">
<!-- Generated by graphviz version 2.42.4 (0)
 -->
<!-- Title: system_architecture Pages: 1 -->
<svg width="850pt" height="494pt"
 viewBox="0.00 0.00 849.50 494.00" xmlns="http://www.w3.org/2000/svg" xmlns:xlink="http://www.w3.org/1999/xlink">
<g id="graph0" class="graph" transform="scale(1 1) rotate(0) translate(18 476)">
<title>system_architecture</title>
<polygon fill="white" stroke="transparent" points="-18,18 -18,-476 831.5,-476 831.5,18 -18,18"/>
<!-- channels -->
<g id="node1" class="node">
<title>channels</title>
<path fill="#e8f1ef" stroke="#334155" d="M367,-458C367,-458 12,-458 12,-458 6,-458 0,-452 0,-446 0,-446 0,-407 0,-407 0,-401 6,-395 12,-395 12,-395 367,-395 367,-395 373,-395 379,-401 379,-407 379,-407 379,-446 379,-446 379,-452 373,-458 367,-458"/>
<text text-anchor="middle" x="189.5" y="-437.8" font-family="Arial" font-size="14.00">PUBLIZIERTE KANAELE</text>
<text text-anchor="middle" x="189.5" y="-422.8" font-family="Arial" font-size="14.00">Patienten Web/Mobile/Druck | Cafeteria Web/Mobile/Druck</text>
<text text-anchor="middle" x="189.5" y="-407.8" font-family="Arial" font-size="14.00">4 feste Signage&#45;URLs | 2 Snapshot&#45;APIs</text>
</g>
<!-- proxy -->
<g id="node2" class="node">
<title>proxy</title>
<path fill="#f7f5ef" stroke="#334155" d="M277.5,-348.5C277.5,-348.5 157.5,-348.5 157.5,-348.5 151.5,-348.5 145.5,-342.5 145.5,-336.5 145.5,-336.5 145.5,-324.5 145.5,-324.5 145.5,-318.5 151.5,-312.5 157.5,-312.5 157.5,-312.5 277.5,-312.5 277.5,-312.5 283.5,-312.5 289.5,-318.5 289.5,-324.5 289.5,-324.5 289.5,-336.5 289.5,-336.5 289.5,-342.5 283.5,-348.5 277.5,-348.5"/>
<text text-anchor="middle" x="217.5" y="-326.8" font-family="Arial" font-size="14.00">TLS Reverse Proxy</text>
</g>
<!-- channels&#45;&gt;proxy -->
<g id="edge1" class="edge">
<title>channels&#45;&gt;proxy</title>
<path fill="none" stroke="#64748b" d="M198.59,-394.98C202.34,-382.4 206.62,-368.02 210.16,-356.13"/>
<polygon fill="#64748b" stroke="#64748b" points="212.74,-356.66 212.37,-348.72 207.71,-355.16 212.74,-356.66"/>
</g>
<!-- app -->
<g id="node3" class="node">
<title>app</title>
<path fill="#dceceb" stroke="#334155" d="M571.5,-266C571.5,-266 345.5,-266 345.5,-266 339.5,-266 333.5,-260 333.5,-254 333.5,-254 333.5,-215 333.5,-215 333.5,-209 339.5,-203 345.5,-203 345.5,-203 571.5,-203 571.5,-203 577.5,-203 583.5,-209 583.5,-215 583.5,-215 583.5,-254 583.5,-254 583.5,-260 577.5,-266 571.5,-266"/>
<text text-anchor="middle" x="458.5" y="-245.8" font-family="Arial" font-size="14.00">FLASK / JINJA / GUNICORN</text>
<text text-anchor="middle" x="458.5" y="-230.8" font-family="Arial" font-size="14.00">Profilbezogene Renderer und Routen</text>
<text text-anchor="middle" x="458.5" y="-215.8" font-family="Arial" font-size="14.00">Keine Player&#45;Query&#45;Parameter</text>
</g>
<!-- proxy&#45;&gt;app -->
<g id="edge2" class="edge">
<title>proxy&#45;&gt;app</title>
<path fill="none" stroke="#64748b" d="M261.14,-312.48C292.3,-300.32 335.23,-283.58 373.09,-268.81"/>
<polygon fill="#64748b" stroke="#64748b" points="374.06,-271.25 380.09,-266.08 372.15,-266.36 374.06,-271.25"/>
</g>
<!-- postgres -->
<g id="node4" class="node">
<title>postgres</title>
<path fill="#e9eef8" stroke="#334155" d="M310.5,-159C310.5,-159 12.5,-159 12.5,-159 6.5,-159 0.5,-153 0.5,-147 0.5,-147 0.5,-93 0.5,-93 0.5,-87 6.5,-81 12.5,-81 12.5,-81 310.5,-81 310.5,-81 316.5,-81 322.5,-87 322.5,-93 322.5,-93 322.5,-147 322.5,-147 322.5,-153 316.5,-159 310.5,-159"/>
<text text-anchor="middle" x="161.5" y="-138.8" font-family="Arial" font-size="14.00">POSTGRESQL</text>
<text text-anchor="middle" x="161.5" y="-123.8" font-family="Arial" font-size="14.00">2 Profile &#45;&gt; Wochen &#45;&gt; Services &#45;&gt; 2 Menuearten</text>
<text text-anchor="middle" x="161.5" y="-108.8" font-family="Arial" font-size="14.00">Preise nur in separater Cafeteria&#45;Tabelle</text>
<text text-anchor="middle" x="161.5" y="-93.8" font-family="Arial" font-size="14.00">Revision pro Profil</text>
</g>
<!-- app&#45;&gt;postgres -->
<g id="edge6" class="edge">
<title>app&#45;&gt;postgres</title>
<path fill="none" stroke="#64748b" d="M377.74,-202.91C344.24,-190.22 304.89,-175.32 269.01,-161.72"/>
<polygon fill="#64748b" stroke="#64748b" points="269.83,-159.23 261.88,-159.02 267.97,-164.14 269.83,-159.23"/>
</g>
<!-- redis -->
<g id="node5" class="node">
<title>redis</title>
<path fill="#f7f5ef" stroke="#334155" d="M557,-144C557,-144 360,-144 360,-144 354,-144 348,-138 348,-132 348,-132 348,-108 348,-108 348,-102 354,-96 360,-96 360,-96 557,-96 557,-96 563,-96 569,-102 569,-108 569,-108 569,-132 569,-132 569,-138 563,-144 557,-144"/>
<text text-anchor="middle" x="458.5" y="-123.8" font-family="Arial" font-size="14.00">REDIS</text>
<text text-anchor="middle" x="458.5" y="-108.8" font-family="Arial" font-size="14.00">Serverseitige Backend&#45;Sessions</text>
</g>
<!-- app&#45;&gt;redis -->
<g id="edge7" class="edge">
<title>app&#45;&gt;redis</title>
<path fill="none" stroke="#64748b" d="M458.5,-202.76C458.5,-187.03 458.5,-167.91 458.5,-152.13"/>
<polygon fill="#64748b" stroke="#64748b" points="461.13,-151.71 458.5,-144.21 455.88,-151.71 461.13,-151.71"/>
</g>
<!-- lastgood -->
<g id="node6" class="node">
<title>lastgood</title>
<path fill="#f7f5ef" stroke="#334155" d="M791,-151.5C791,-151.5 606,-151.5 606,-151.5 600,-151.5 594,-145.5 594,-139.5 594,-139.5 594,-100.5 594,-100.5 594,-94.5 600,-88.5 606,-88.5 606,-88.5 791,-88.5 791,-88.5 797,-88.5 803,-94.5 803,-100.5 803,-100.5 803,-139.5 803,-139.5 803,-145.5 797,-151.5 791,-151.5"/>
<text text-anchor="middle" x="698.5" y="-131.3" font-family="Arial" font-size="14.00">LAST&#45;GOOD</text>
<text text-anchor="middle" x="698.5" y="-116.3" font-family="Arial" font-size="14.00">Lokale letzte gueltige Revision</text>
<text text-anchor="middle" x="698.5" y="-101.3" font-family="Arial" font-size="14.00">je Profil getrennt</text>
</g>
<!-- app&#45;&gt;lastgood -->
<g id="edge8" class="edge">
<title>app&#45;&gt;lastgood</title>
<path fill="none" stroke="#64748b" d="M530.63,-199.69C560.83,-185.53 595.85,-169.12 626.08,-154.95"/>
<polygon fill="#64748b" stroke="#64748b" points="529.44,-197.35 523.76,-202.91 531.67,-202.1 529.44,-197.35"/>
<polygon fill="#64748b" stroke="#64748b" points="627.57,-157.15 633.25,-151.59 625.34,-152.39 627.57,-157.15"/>
<text text-anchor="middle" x="612" y="-178.2" font-family="Arial" font-size="11.00">gleiches Profil</text>
</g>
<!-- backup -->
<g id="node10" class="node">
<title>backup</title>
<path fill="#f7f5ef" stroke="#334155" d="M268,-48C268,-48 55,-48 55,-48 49,-48 43,-42 43,-36 43,-36 43,-12 43,-12 43,-6 49,0 55,0 55,0 268,0 268,0 274,0 280,-6 280,-12 280,-12 280,-36 280,-36 280,-42 274,-48 268,-48"/>
<text text-anchor="middle" x="161.5" y="-27.8" font-family="Arial" font-size="14.00">BACKUP / RESTORE</text>
<text text-anchor="middle" x="161.5" y="-12.8" font-family="Arial" font-size="14.00">pg_dump, SHA&#45;256, externe Kopie</text>
</g>
<!-- postgres&#45;&gt;backup -->
<g id="edge9" class="edge">
<title>postgres&#45;&gt;backup</title>
<path fill="none" stroke="#64748b" d="M161.5,-80.77C161.5,-72.46 161.5,-63.77 161.5,-55.79"/>
<polygon fill="#64748b" stroke="#64748b" points="164.13,-55.59 161.5,-48.09 158.88,-55.59 164.13,-55.59"/>
</g>
<!-- entra -->
<g id="node7" class="node">
<title>entra</title>
<path fill="#f7f5ef" stroke="#334155" d="M536,-354.5C536,-354.5 381,-354.5 381,-354.5 375,-354.5 369,-348.5 369,-342.5 369,-342.5 369,-318.5 369,-318.5 369,-312.5 375,-306.5 381,-306.5 381,-306.5 536,-306.5 536,-306.5 542,-306.5 548,-312.5 548,-318.5 548,-318.5 548,-342.5 548,-342.5 548,-348.5 542,-354.5 536,-354.5"/>
<text text-anchor="middle" x="458.5" y="-334.3" font-family="Arial" font-size="14.00">MICROSOFT ENTRA ID</text>
<text text-anchor="middle" x="458.5" y="-319.3" font-family="Arial" font-size="14.00">Editor | Publisher | Admin</text>
</g>
<!-- entra&#45;&gt;app -->
<g id="edge4" class="edge">
<title>entra&#45;&gt;app</title>
<path fill="none" stroke="#64748b" d="M458.5,-306.26C458.5,-296.55 458.5,-285 458.5,-274.08"/>
<polygon fill="#64748b" stroke="#64748b" points="461.13,-273.77 458.5,-266.27 455.88,-273.77 461.13,-273.77"/>
</g>
<!-- kitchen -->
<g id="node8" class="node">
<title>kitchen</title>
<path fill="#fff3dc" stroke="#334155" d="M554.5,-458C554.5,-458 416.5,-458 416.5,-458 410.5,-458 404.5,-452 404.5,-446 404.5,-446 404.5,-407 404.5,-407 404.5,-401 410.5,-395 416.5,-395 416.5,-395 554.5,-395 554.5,-395 560.5,-395 566.5,-401 566.5,-407 566.5,-407 566.5,-446 566.5,-446 566.5,-452 560.5,-458 554.5,-458"/>
<text text-anchor="middle" x="485.5" y="-437.8" font-family="Arial" font-size="14.00">KUECHEN&#45;BACKEND</text>
<text text-anchor="middle" x="485.5" y="-422.8" font-family="Arial" font-size="14.00">Patientenraster 7 x 2</text>
<text text-anchor="middle" x="485.5" y="-407.8" font-family="Arial" font-size="14.00">Cafeteriaraster 5 x 1</text>
</g>
<!-- kitchen&#45;&gt;entra -->
<g id="edge3" class="edge">
<title>kitchen&#45;&gt;entra</title>
<path fill="none" stroke="#64748b" d="M476.73,-394.98C473.71,-384.46 470.32,-372.67 467.3,-362.13"/>
<polygon fill="#64748b" stroke="#64748b" points="469.76,-361.2 465.17,-354.72 464.72,-362.65 469.76,-361.2"/>
</g>
<!-- csv -->
<g id="node9" class="node">
<title>csv</title>
<path fill="#fff3dc" stroke="#334155" d="M801.5,-362C801.5,-362 585.5,-362 585.5,-362 579.5,-362 573.5,-356 573.5,-350 573.5,-350 573.5,-311 573.5,-311 573.5,-305 579.5,-299 585.5,-299 585.5,-299 801.5,-299 801.5,-299 807.5,-299 813.5,-305 813.5,-311 813.5,-311 813.5,-350 813.5,-350 813.5,-356 807.5,-362 801.5,-362"/>
<text text-anchor="middle" x="693.5" y="-341.8" font-family="Arial" font-size="14.00">CSV&#45;IMPORT</text>
<text text-anchor="middle" x="693.5" y="-326.8" font-family="Arial" font-size="14.00">Patientenformat ohne Kosten</text>
<text text-anchor="middle" x="693.5" y="-311.8" font-family="Arial" font-size="14.00">Cafeteriaformat mit zwei Ansaetzen</text>
</g>
<!-- csv&#45;&gt;app -->
<g id="edge5" class="edge">
<title>csv&#45;&gt;app</title>
<path fill="none" stroke="#64748b" d="M617.2,-298.98C593.17,-289.37 566.51,-278.7 542.01,-268.9"/>
<polygon fill="#64748b" stroke="#64748b" points="542.76,-266.37 534.82,-266.03 540.81,-271.25 542.76,-266.37"/>
</g>
</g>
</svg>
