<svg xmlns="http://www.w3.org/2000/svg">
<!-- Tabler Icons 3.46.0 (MIT, https://github.com/tabler/tabler-icons) — outline subset, built from the official npm package SVG files. See ../README.md. -->
<symbol id="tabler-calendar-week" viewBox="0 0 24 24" fill="none" stroke="currentColor" stroke-width="2" stroke-linecap="round" stroke-linejoin="round"><path stroke="none" d="M0 0h24v24H0z" fill="none" /> <path d="M4 7a2 2 0 0 1 2 -2h12a2 2 0 0 1 2 2v12a2 2 0 0 1 -2 2h-12a2 2 0 0 1 -2 -2v-12" /> <path d="M16 3v4" /> <path d="M8 3v4" /> <path d="M4 11h16" /> <path d="M7 14h.013" /> <path d="M10.01 14h.005" /> <path d="M13.01 14h.005" /> <path d="M16.015 14h.005" /> <path d="M13.015 17h.005" /> <path d="M7.01 17h.005" /> <path d="M10.01 17h.005" /></symbol>
<symbol id="tabler-calendar-cog" viewBox="0 0 24 24" fill="none" stroke="currentColor" stroke-width="2" stroke-linecap="round" stroke-linejoin="round"><path stroke="none" d="M0 0h24v24H0z" fill="none" /> <path d="M12 21h-6a2 2 0 0 1 -2 -2v-12a2 2 0 0 1 2 -2h12a2 2 0 0 1 2 2v5" /> <path d="M16 3v4" /> <path d="M8 3v4" /> <path d="M4 11h16" /> <path d="M17.001 19a2 2 0 1 0 4 0a2 2 0 1 0 -4 0" /> <path d="M19.001 15.5v1.5" /> <path d="M19.001 21v1.5" /> <path d="M22.032 17.25l-1.299 .75" /> <path d="M17.27 20l-1.3 .75" /> <path d="M15.97 17.25l1.3 .75" /> <path d="M20.733 20l1.3 .75" /></symbol>
<symbol id="tabler-calendar-plus" viewBox="0 0 24 24" fill="none" stroke="currentColor" stroke-width="2" stroke-linecap="round" stroke-linejoin="round"><path stroke="none" d="M0 0h24v24H0z" fill="none" /> <path d="M12.5 21h-6.5a2 2 0 0 1 -2 -2v-12a2 2 0 0 1 2 -2h12a2 2 0 0 1 2 2v5" /> <path d="M16 3v4" /> <path d="M8 3v4" /> <path d="M4 11h16" /> <path d="M16 19h6" /> <path d="M19 16v6" /></symbol>
<symbol id="tabler-tools-kitchen-2" viewBox="0 0 24 24" fill="none" stroke="currentColor" stroke-width="2" stroke-linecap="round" stroke-linejoin="round"><path stroke="none" d="M0 0h24v24H0z" fill="none" /> <path d="M19 3v12h-5c-.023 -3.681 .184 -7.406 5 -12m0 12v6h-1v-3m-10 -14v17m-3 -17v3a3 3 0 1 0 6 0v-3" /></symbol>
<symbol id="tabler-components" viewBox="0 0 24 24" fill="none" stroke="currentColor" stroke-width="2" stroke-linecap="round" stroke-linejoin="round"><path stroke="none" d="M0 0h24v24H0z" fill="none" /> <path d="M3 12l3 3l3 -3l-3 -3l-3 3" /> <path d="M15 12l3 3l3 -3l-3 -3l-3 3" /> <path d="M9 6l3 3l3 -3l-3 -3l-3 3" /> <path d="M9 18l3 3l3 -3l-3 -3l-3 3" /></symbol>
<symbol id="tabler-file-import" viewBox="0 0 24 24" fill="none" stroke="currentColor" stroke-width="2" stroke-linecap="round" stroke-linejoin="round"><path stroke="none" d="M0 0h24v24H0z" fill="none" /> <path d="M14 3v4a1 1 0 0 0 1 1h4" /> <path d="M5 13v-8a2 2 0 0 1 2 -2h7l5 5v11a2 2 0 0 1 -2 2h-5.5m-9.5 -2h7m-3 -3l3 3l-3 3" /></symbol>
<symbol id="tabler-logout" viewBox="0 0 24 24" fill="none" stroke="currentColor" stroke-width="2" stroke-linecap="round" stroke-linejoin="round"><path stroke="none" d="M0 0h24v24H0z" fill="none" /> <path d="M14 8v-2a2 2 0 0 0 -2 -2h-7a2 2 0 0 0 -2 2v12a2 2 0 0 0 2 2h7a2 2 0 0 0 2 -2v-2" /> <path d="M9 12h12l-3 -3" /> <path d="M18 15l3 -3" /></symbol>
<symbol id="tabler-search" viewBox="0 0 24 24" fill="none" stroke="currentColor" stroke-width="2" stroke-linecap="round" stroke-linejoin="round"><path stroke="none" d="M0 0h24v24H0z" fill="none" /> <path d="M3 10a7 7 0 1 0 14 0a7 7 0 1 0 -14 0" /> <path d="M21 21l-6 -6" /></symbol>
<symbol id="tabler-x" viewBox="0 0 24 24" fill="none" stroke="currentColor" stroke-width="2" stroke-linecap="round" stroke-linejoin="round"><path stroke="none" d="M0 0h24v24H0z" fill="none" /> <path d="M18 6l-12 12" /> <path d="M6 6l12 12" /></symbol>
<symbol id="tabler-plus" viewBox="0 0 24 24" fill="none" stroke="currentColor" stroke-width="2" stroke-linecap="round" stroke-linejoin="round"><path stroke="none" d="M0 0h24v24H0z" fill="none" /> <path d="M12 5l0 14" /> <path d="M5 12l14 0" /></symbol>
<symbol id="tabler-trash" viewBox="0 0 24 24" fill="none" stroke="currentColor" stroke-width="2" stroke-linecap="round" stroke-linejoin="round"><path stroke="none" d="M0 0h24v24H0z" fill="none" /> <path d="M4 7l16 0" /> <path d="M10 11l0 6" /> <path d="M14 11l0 6" /> <path d="M5 7l1 12a2 2 0 0 0 2 2h8a2 2 0 0 0 2 -2l1 -12" /> <path d="M9 7v-3a1 1 0 0 1 1 -1h4a1 1 0 0 1 1 1v3" /></symbol>
<symbol id="tabler-arrow-left" viewBox="0 0 24 24" fill="none" stroke="currentColor" stroke-width="2" stroke-linecap="round" stroke-linejoin="round"><path stroke="none" d="M0 0h24v24H0z" fill="none" /> <path d="M5 12l14 0" /> <path d="M5 12l6 6" /> <path d="M5 12l6 -6" /></symbol>
<symbol id="tabler-check" viewBox="0 0 24 24" fill="none" stroke="currentColor" stroke-width="2" stroke-linecap="round" stroke-linejoin="round"><path stroke="none" d="M0 0h24v24H0z" fill="none" /> <path d="M5 12l5 5l10 -10" /></symbol>
<symbol id="tabler-eye" viewBox="0 0 24 24" fill="none" stroke="currentColor" stroke-width="2" stroke-linecap="round" stroke-linejoin="round"><path stroke="none" d="M0 0h24v24H0z" fill="none" /> <path d="M10 12a2 2 0 1 0 4 0a2 2 0 0 0 -4 0" /> <path d="M21 12c-2.4 4 -5.4 6 -9 6c-3.6 0 -6.6 -2 -9 -6c2.4 -4 5.4 -6 9 -6c3.6 0 6.6 2 9 6" /></symbol>
<symbol id="tabler-copy" viewBox="0 0 24 24" fill="none" stroke="currentColor" stroke-width="2" stroke-linecap="round" stroke-linejoin="round"><path stroke="none" d="M0 0h24v24H0z" fill="none" /> <path d="M7 9.667a2.667 2.667 0 0 1 2.667 -2.667h8.666a2.667 2.667 0 0 1 2.667 2.667v8.666a2.667 2.667 0 0 1 -2.667 2.667h-8.666a2.667 2.667 0 0 1 -2.667 -2.667l0 -8.666" /> <path d="M4.012 16.737a2.005 2.005 0 0 1 -1.012 -1.737v-10c0 -1.1 .9 -2 2 -2h10c.75 0 1.158 .385 1.5 1" /></symbol>
<symbol id="tabler-device-floppy" viewBox="0 0 24 24" fill="none" stroke="currentColor" stroke-width="2" stroke-linecap="round" stroke-linejoin="round"><path stroke="none" d="M0 0h24v24H0z" fill="none" /> <path d="M6 4h10l4 4v10a2 2 0 0 1 -2 2h-12a2 2 0 0 1 -2 -2v-12a2 2 0 0 1 2 -2" /> <path d="M10 14a2 2 0 1 0 4 0a2 2 0 1 0 -4 0" /> <path d="M14 4l0 4l-6 0l0 -4" /></symbol>
<symbol id="tabler-alert-triangle" viewBox="0 0 24 24" fill="none" stroke="currentColor" stroke-width="2" stroke-linecap="round" stroke-linejoin="round"><path stroke="none" d="M0 0h24v24H0z" fill="none" /> <path d="M12 9v4" /> <path d="M10.363 3.591l-8.106 13.534a1.914 1.914 0 0 0 1.636 2.871h16.214a1.914 1.914 0 0 0 1.636 -2.87l-8.106 -13.536a1.914 1.914 0 0 0 -3.274 0" /> <path d="M12 16h.01" /></symbol>
<symbol id="tabler-pencil" viewBox="0 0 24 24" fill="none" stroke="currentColor" stroke-width="2" stroke-linecap="round" stroke-linejoin="round"><path stroke="none" d="M0 0h24v24H0z" fill="none" /> <path d="M4 20h4l10.5 -10.5a2.828 2.828 0 1 0 -4 -4l-10.5 10.5v4" /> <path d="M13.5 6.5l4 4" /></symbol>
<symbol id="tabler-chevron-left" viewBox="0 0 24 24" fill="none" stroke="currentColor" stroke-width="2" stroke-linecap="round" stroke-linejoin="round"><path stroke="none" d="M0 0h24v24H0z" fill="none" /> <path d="M15 6l-6 6l6 6" /></symbol>
<symbol id="tabler-chevron-right" viewBox="0 0 24 24" fill="none" stroke="currentColor" stroke-width="2" stroke-linecap="round" stroke-linejoin="round"><path stroke="none" d="M0 0h24v24H0z" fill="none" /> <path d="M9 6l6 6l-6 6" /></symbol>
<symbol id="tabler-upload" viewBox="0 0 24 24" fill="none" stroke="currentColor" stroke-width="2" stroke-linecap="round" stroke-linejoin="round"><path stroke="none" d="M0 0h24v24H0z" fill="none" /> <path d="M4 17v2a2 2 0 0 0 2 2h12a2 2 0 0 0 2 -2v-2" /> <path d="M7 9l5 -5l5 5" /> <path d="M12 4l0 12" /></symbol>
<symbol id="tabler-archive" viewBox="0 0 24 24" fill="none" stroke="currentColor" stroke-width="2" stroke-linecap="round" stroke-linejoin="round"><path stroke="none" d="M0 0h24v24H0z" fill="none" /> <path d="M3 6a2 2 0 0 1 2 -2h14a2 2 0 0 1 2 2a2 2 0 0 1 -2 2h-14a2 2 0 0 1 -2 -2" /> <path d="M5 8v10a2 2 0 0 0 2 2h10a2 2 0 0 0 2 -2v-10" /> <path d="M10 12l4 0" /></symbol>
<symbol id="tabler-archive-off" viewBox="0 0 24 24" fill="none" stroke="currentColor" stroke-width="2" stroke-linecap="round" stroke-linejoin="round"><path stroke="none" d="M0 0h24v24H0z" fill="none" /> <path d="M8 4h11a2 2 0 1 1 0 4h-7m-4 0h-3a2 2 0 0 1 -.826 -3.822" /> <path d="M5 8v10a2 2 0 0 0 2 2h10a2 2 0 0 0 1.824 -1.18m.176 -3.82v-7" /> <path d="M10 12h2" /> <path d="M3 3l18 18" /></symbol>
<symbol id="tabler-file-check" viewBox="0 0 24 24" fill="none" stroke="currentColor" stroke-width="2" stroke-linecap="round" stroke-linejoin="round"><path stroke="none" d="M0 0h24v24H0z" fill="none" /> <path d="M14 3v4a1 1 0 0 0 1 1h4" /> <path d="M17 21h-10a2 2 0 0 1 -2 -2v-14a2 2 0 0 1 2 -2h7l5 5v11a2 2 0 0 1 -2 2" /> <path d="M9 15l2 2l4 -4" /></symbol>
<symbol id="tabler-info-circle" viewBox="0 0 24 24" fill="none" stroke="currentColor" stroke-width="2" stroke-linecap="round" stroke-linejoin="round"><path stroke="none" d="M0 0h24v24H0z" fill="none" /> <path d="M3 12a9 9 0 1 0 18 0a9 9 0 0 0 -18 0" /> <path d="M12 9h.01" /> <path d="M11 12h1v4h1" /></symbol>
<symbol id="tabler-circle-check" viewBox="0 0 24 24" fill="none" stroke="currentColor" stroke-width="2" stroke-linecap="round" stroke-linejoin="round"><path stroke="none" d="M0 0h24v24H0z" fill="none" /> <path d="M3 12a9 9 0 1 0 18 0a9 9 0 1 0 -18 0" /> <path d="M9 12l2 2l4 -4" /></symbol>
<symbol id="tabler-refresh" viewBox="0 0 24 24" fill="none" stroke="currentColor" stroke-width="2" stroke-linecap="round" stroke-linejoin="round"><path stroke="none" d="M0 0h24v24H0z" fill="none" /> <path d="M20 11a8.1 8.1 0 0 0 -15.5 -2m-.5 -4v4h4" /> <path d="M4 13a8.1 8.1 0 0 0 15.5 2m.5 4v-4h-4" /></symbol>
<symbol id="tabler-clipboard-check" viewBox="0 0 24 24" fill="none" stroke="currentColor" stroke-width="2" stroke-linecap="round" stroke-linejoin="round"><path stroke="none" d="M0 0h24v24H0z" fill="none" /> <path d="M9 5h-2a2 2 0 0 0 -2 2v12a2 2 0 0 0 2 2h10a2 2 0 0 0 2 -2v-12a2 2 0 0 0 -2 -2h-2" /> <path d="M9 5a2 2 0 0 1 2 -2h2a2 2 0 0 1 2 2a2 2 0 0 1 -2 2h-2a2 2 0 0 1 -2 -2" /> <path d="M9 14l2 2l4 -4" /></symbol>
</svg>
